PathFileType	4	(X/Y/Z)	C:/Users/opensim2020/Desktop/walking_exp_matlab/subject02_walking10_straight_02.trc																																																																																																																															
DataRate	CameraRate	NumFrames	NumMarkers	Units	OrigDataRate	OrigDataStartFrame	OrigNumFrames																																																																																																																											
100	100	9	43	mm	100	1470	280																																																																																																																											
Frame#	Time	LFHD			RFHD			LBHD			RBHD			C7			T10			CLAV			STRN			RBAK			LSHO			LUPA			LELB			LFRM			LWRA			LWRB			LFIN			RSHO			RUPA			RELB			RFRM			RWRA			RWRB			RFIN			LASI			RASI			LPSI			RPSI			LTHI			LKNE			LTIB			LANK			LHEE			LTOE			RTHI			RKNE			RTIB			RANK			RHEE			RTOE			*39			*40			*41			*42		
		X1	Y1	Z1	X2	Y2	Z2	X3	Y3	Z3	X4	Y4	Z4	X5	Y5	Z5	X6	Y6	Z6	X7	Y7	Z7	X8	Y8	Z8	X9	Y9	Z9	X10	Y10	Z10	X11	Y11	Z11	X12	Y12	Z12	X13	Y13	Z13	X14	Y14	Z14	X15	Y15	Z15	X16	Y16	Z16	X17	Y17	Z17	X18	Y18	Z18	X19	Y19	Z19	X20	Y20	Z20	X21	Y21	Z21	X22	Y22	Z22	X23	Y23	Z23	X24	Y24	Z24	X25	Y25	Z25	X26	Y26	Z26	X27	Y27	Z27	X28	Y28	Z28	X29	Y29	Z29	X30	Y30	Z30	X31	Y31	Z31	X32	Y32	Z32	X33	Y33	Z33	X34	Y34	Z34	X35	Y35	Z35	X36	Y36	Z36	X37	Y37	Z37	X38	Y38	Z38	X39	Y39	Z39	X40	Y40	Z40	X41	Y41	Z41	X42	Y42	Z42	X43	Y43	Z43
																																																																																																																																		
71	0.7	-569.58691	1763.30017	934.35608	-570.60822	1743.45984	1077.24524	-686.46954	1668.4696	921.64557	-698.70264	1644.90588	1063.18396	-726.5462	1534.87476	989.51288	-780.01312	1260.6095	991.33997	-586.67725	1467.85315	986.2948	-535.08429	1295.02844	999.88477	-787.2149	1362.70239	1050.62415	-640.90033	1510.0083	813.09869	-625.80304	1310.1908	724.82343	-606.37695	1171.19141	709.34045	-572.33752	1044.2926	697.16498	-502.26917	928.52576	736.94879	-539.84436	925.40173	695.19238	-509.02536	866.77673	692.93848	-656.20612	1502.68701	1179.53882	-697.91028	1314.36914	1262.69873	-691.54321	1167.89514	1282.4043	-660.62292	1051.40552	1304.43884	-606.69171	926.42053	1288.63953	-654.98749	921.55072	1317.62134	-615.76416	860.16406	1322.88293	-543.43134	999.48431	870.21088	-555.54584	987.61304	1124.77881	-756.16913	1041.79431	941.72241	-766.10657	1041.61511	1056.80457	-603.10663	682.9007	830.60352	-635.1759	481.70084	871.03467	-690.90918	293.57336	882.49463	-684.51324	72.51799	933.24072	-719.50409	45.48246	985.68805	-528.81995	37.92331	925.73096	-602.73407	688.48315	1219.05005	-569.33081	488.38583	1211.99963	-678.38074	338.6738	1200.47046	-760.26227	165.95953	1159.19189	-790.81305	118.54179	1092.46545	-659.48267	61.41736	1222.90479	-682.96399	1810.51697	1022.23193	-2845.72192	1034.3064	3357.13501	NaN	NaN	NaN	NaN	NaN	NaN
72	0.71	-561.70929	1763.40381	934.1731	-562.9809	1742.97437	1077.09058	-678.80249	1669.20471	921.2486	-691.48029	1645.09155	1062.65796	-719.47375	1535.0918	988.63861	-773.69098	1261.03186	991.2359	-579.75116	1467.76245	985.47491	-528.69452	1294.91528	998.62329	-780.5014	1363.01184	1049.70862	-633.76874	1510.33411	812.28424	-617.30444	1311.05847	723.56	-596.72296	1172.03406	707.68073	-560.26202	1045.3656	695.85992	-489.1055	930.95026	736.19928	-527.20203	927.11438	694.03625	-494.84305	868.90039	692.46167	-649.4433	1502.54175	1178.69263	-692.3316	1314.36169	1261.18958	-686.54919	1167.95288	1281.55078	-655.90002	1051.32019	1303.63989	-602.20593	926.2951	1287.95593	-650.72443	921.71973	1317.23865	-611.59875	860.1806	1322.10779	-539.02917	998.76715	868.53369	-548.79138	987.86163	1123.34985	-750.89551	1041.90735	942.34851	-759.8822	1042.38818	1057.53552	-600.04266	682.60138	830.53296	-633.60156	481.58591	871.0722	-690.27502	293.80243	882.75177	-684.534	72.56218	933.44043	-719.60223	45.57264	985.93683	-528.82526	37.82375	925.48132	-593.51428	689.20435	1218.55823	-557.39844	488.95605	1210.62915	-661.56042	335.45889	1200.29053	-737.67609	159.83557	1159.8988	-767.3432	111.20805	1093.5813	-632.05811	59.47447	1222.20142	-674.78601	1810.72754	1022.19098	-2845.18359	1034.17932	3360.36841	NaN	NaN	NaN	NaN	NaN	NaN
73	0.72	-553.6095	1763.11633	934.4646	-555.26978	1742.34729	1077.31787	-671.3501	1669.74695	920.55676	-684.23761	1645.23083	1062.13391	-712.41028	1535.26782	987.83618	-767.32178	1261.40918	991.17084	-572.88763	1467.5603	984.69641	-522.3269	1294.59021	997.44574	-773.95227	1363.38794	1048.98975	-626.59631	1510.49072	811.5899	-608.92365	1311.69434	722.39081	-587.15997	1172.68469	706.08569	-548.80255	1046.44543	694.6972	-475.83551	933.22809	735.57617	-513.83307	928.60052	693.51819	-480.68002	871.07953	692.17822	-642.68121	1502.14575	1177.78345	-686.76367	1314.39185	1260.23779	-681.48462	1167.95007	1280.81433	-651.11481	1051.19116	1302.85938	-597.60577	926.06671	1287.2998	-646.32922	921.43719	1316.12854	-607.23505	859.96088	1321.40259	-534.40411	997.91071	867.04858	-542.18237	987.98889	1122.27808	-745.57324	1042.04724	942.94598	-753.755	1042.94568	1058.16528	-597.0506	682.2124	830.47516	-631.92371	481.44217	871.07324	-689.45764	293.97211	883.00208	-684.52039	72.59308	933.64679	-719.26526	45.52689	986.07245	-528.77008	37.71854	925.24847	-584.33514	689.91156	1218.07886	-545.58875	489.47791	1209.26013	-644.53595	332.16437	1200.20679	-714.8717	153.9256	1160.63293	-743.62457	104.29857	1094.97156	-604.63684	57.70118	1221.40125	-666.48053	1810.79211	1022.586	-2845.08301	1034.099	3360.19189	NaN	NaN	NaN	NaN	NaN	NaN
74	0.73	-545.44702	1762.88538	934.74316	-547.51965	1741.60583	1077.44006	-663.5791	1670.08704	920.35236	-677.02203	1645.22375	1061.6665	-705.34216	1535.37683	987.13263	-761.07184	1261.69958	991.24475	-565.99725	1467.25134	983.93445	-515.92328	1294.13049	996.33142	-767.48114	1363.58887	1048.33398	-619.61157	1510.53198	810.93188	-600.76556	1312.12256	721.26782	-577.69733	1173.3053	704.56207	-537.05676	1047.42725	693.45422	-463.02487	935.55469	735.06317	-500.87369	930.26434	692.92389	-466.39688	873.21259	691.97699	-635.88519	1501.73328	1176.97009	-681.16077	1314.40784	1259.73083	-676.3335	1167.8241	1279.93628	-646.28186	1051.06995	1302.29919	-592.68726	925.88007	1287.02283	-641.73596	921.18823	1315.32019	-602.71173	859.65082	1320.74207	-529.68347	996.89026	865.62415	-535.62665	987.63922	1121.26294	-740.23108	1042.18787	943.54187	-747.62469	1043.27246	1058.73584	-594.16266	681.94116	830.54791	-630.09167	481.30185	871.23309	-688.42126	294.13922	883.16443	-684.44037	72.65623	933.82452	-719.63336	45.82708	986.52185	-528.85986	37.48559	924.98358	-575.20374	690.54126	1217.68359	-534.08093	489.83902	1207.76208	-627.70251	329.04266	1200.00635	-692.00903	148.1396	1161.30432	-719.69708	97.49221	1095.8866	-577.16888	56.27591	1220.62	-658.24683	1810.8656	1022.68591	-2845.17627	1034.05786	3360.28174	NaN	NaN	NaN	NaN	NaN	NaN
75	0.74	-537.26953	1762.56262	935.00946	-539.77496	1740.82837	1077.79187	-655.90112	1670.62781	920.20398	-669.75311	1645.24402	1061.41394	-698.31226	1535.43225	986.56573	-754.79523	1261.92505	991.36511	-559.10114	1466.771	983.43756	-509.52805	1293.62036	995.36145	-760.86163	1363.69958	1047.79175	-612.64795	1510.54285	810.36627	-592.43439	1312.74512	720.11023	-568.44067	1173.85388	703.0506	-526.18658	1048.3999	692.70459	-450.09991	938.24622	734.79913	-487.6311	931.81207	692.68115	-452.39911	875.33533	691.90045	-629.29248	1501.46509	1176.61108	-675.42419	1314.26306	1258.99023	-671.00916	1167.4375	1279.12878	-641.24463	1050.69629	1301.56702	-587.99451	925.71875	1286.48621	-636.92957	920.97339	1314.82629	-598.11072	859.29034	1320.17395	-524.7832	995.87659	864.46204	-529.13605	987.65576	1120.64856	-734.78583	1042.25122	944.04736	-741.52173	1043.40039	1059.20105	-591.3006	681.62952	830.53754	-628.19501	481.12439	871.40955	-687.27222	294.29092	883.41498	-684.349	72.74814	934.05853	-719.36145	45.89826	986.48517	-528.59833	37.4235	924.78699	-566.11365	691.12909	1217.29675	-522.89642	490.25513	1206.29846	-610.83844	325.9873	1199.69836	-668.8855	142.76582	1162.07666	-695.63995	91.02605	1096.97327	-549.90894	55.19621	1219.88916	-650.02893	1811.099	1022.79919	-2845.14526	1034.18225	3360.25684	NaN	NaN	NaN	NaN	NaN	NaN
76	0.75	-529.10864	1762.04272	935.50183	-532.03815	1739.98608	1078.02686	-648.06738	1670.8689	920.19092	-662.4892	1645.10486	1061.13745	-691.24438	1535.42493	986.06158	-748.49786	1262.06775	991.52472	-552.26312	1466.44763	982.77319	-503.17484	1292.8678	994.48608	-754.29724	1363.80798	1047.38	-605.75201	1510.36853	809.85205	-584.75305	1312.79858	719.44696	-558.9223	1174.0061	701.9826	-515.05957	1049.28259	691.88037	-437.5831	940.40662	734.96851	-474.75415	933.29877	692.58984	-438.80704	877.46466	692.01617	-622.53571	1500.95801	1176.14111	-669.50366	1313.86584	1257.85156	-665.65747	1167.36011	1278.6781	-636.14685	1050.42053	1301.06702	-583.16675	925.0553	1285.69995	-632.10974	920.63037	1314.1792	-593.34894	858.96954	1319.68359	-519.83533	994.90967	863.65405	-522.72131	987.30042	1120.08423	-729.36279	1042.26221	944.51208	-735.53857	1043.36902	1059.61206	-587.91833	681.0426	830.91748	-626.06616	480.90964	871.59473	-686.08673	294.43668	883.74292	-684.23138	72.85744	934.31421	-719.23462	46.13679	986.8186	-528.44385	37.27939	924.60413	-557.18243	691.64935	1217.0354	-511.94489	490.41916	1204.6991	-594.14722	322.95844	1199.38733	-645.71289	137.60713	1162.78748	-671.18719	84.90106	1098.11511	-522.75848	54.36037	1219.2124	-641.79584	1810.90881	1023.05585	-2845.82275	1034.29016	3357.34204	NaN	NaN	NaN	NaN	NaN	NaN
77	0.76	-520.85059	1761.32922	936.05322	-524.30206	1739.09521	1078.44702	-640.29315	1670.82397	920.16669	-655.16266	1644.91357	1061.0376	-684.2085	1535.29883	985.69568	-742.18176	1262.18604	991.66541	-545.42847	1465.92163	982.29272	-496.83496	1292.37524	993.71277	-747.84607	1363.94641	1047.18298	-598.83557	1510.22119	809.43304	-576.65369	1312.9906	718.41907	-550.00763	1174.46667	700.65912	-504.11581	1050.1676	691.37848	-425.26837	942.70404	734.63782	-461.9241	934.77838	692.47205	-425.086	879.61249	692.13434	-615.7403	1500.50049	1175.71716	-663.55945	1313.8866	1258.14648	-660.1474	1167.02417	1278.08167	-630.97339	1049.99072	1300.36841	-577.94562	924.73444	1285.53589	-627.27576	920.14606	1313.36755	-588.55756	858.58154	1319.22974	-514.65619	993.97296	862.95819	-516.34149	986.91553	1119.68469	-723.81653	1042.15417	944.91364	-729.46735	1043.14502	1059.92102	-585.12622	680.89221	830.9079	-624.05963	480.79532	871.61133	-684.8974	294.64413	884.04236	-684.05804	73.02828	934.57617	-719.35223	46.54251	987.30243	-528.24689	37.19086	924.46259	-548.28369	692.04071	1216.95166	-501.3775	490.51102	1203.12622	-577.21826	319.86008	1198.81055	-622.38293	132.69765	1163.52295	-646.66583	79.23566	1099.12195	-495.82034	54.00252	1218.56165	-633.54071	1810.72437	1023.94983	-2844.95874	1034.22632	3360.12207	NaN	NaN	NaN	NaN	NaN	NaN
78	0.77	-512.82257	1760.94202	936.42126	-516.47638	1738.02527	1078.99829	-632.49274	1670.91931	920.29364	-648.04291	1644.74158	1061.12634	-677.23151	1535.14575	985.43341	-735.87018	1262.20776	991.78961	-538.57007	1465.30188	981.89758	-490.46567	1291.6438	993.12744	-741.17133	1363.86536	1046.88586	-591.90466	1509.9231	809.15833	-569.35242	1313.09814	717.88855	-541.10413	1174.68213	699.61658	-493.45712	1051.07715	690.83203	-413.0036	945.00842	734.86163	-449.68393	936.32056	692.74011	-411.79358	881.73004	692.53149	-608.80579	1499.89282	1175.4198	-657.40485	1313.39465	1257.28137	-654.54498	1166.70703	1277.60718	-625.6673	1049.52747	1299.86865	-573.04523	924.12506	1285.01331	-622.24408	919.6875	1312.77173	-583.6311	858.10931	1318.73413	-509.48553	993.15826	862.44702	-509.95773	986.4314	1119.35974	-718.18573	1041.94324	945.29828	-723.4519	1042.80469	1060.16589	-581.89703	680.54541	831.10217	-621.74011	480.59653	871.83801	-683.74536	294.85391	884.47559	-683.92242	73.16238	934.83075	-719.21613	46.74043	987.64984	-527.79102	36.99255	924.41736	-539.6297	692.22546	1216.67786	-491.04398	490.44986	1201.51343	-560.93164	317.0849	1198.63367	-599.08997	128.13077	1164.50232	-622.03772	73.78159	1100.31189	-468.97888	54.09349	1218.06494	-625.32288	1810.33862	1024.1322	-2845.74121	1034.46973	3357.33569	NaN	NaN	NaN	NaN	NaN	NaN
79	0.78	-504.43008	1760.17114	937.26599	-508.80783	1737.05981	1079.34448	-624.76477	1670.82874	919.99133	-640.63989	1644.33411	1061.14807	-670.08313	1534.85876	985.18506	-729.57782	1262.07886	991.93384	-531.71893	1464.64966	981.6098	-484.07263	1290.84595	992.70361	-734.5647	1363.77271	1046.78833	-584.99487	1509.52734	808.98065	-561.87183	1313.026	717.40668	-532.32397	1174.8241	698.58929	-482.71619	1051.52991	690.46124	-401.31815	946.97314	735.06958	-437.64389	937.45966	692.76544	-398.4899	883.77545	692.84644	-601.92212	1499.40552	1175.1604	-651.14117	1312.99451	1256.87549	-648.73395	1166.30554	1277.21448	-620.13879	1049.12512	1299.74438	-567.63232	923.63153	1284.82507	-617.14886	919.19086	1312.29443	-578.46979	857.40802	1318.36011	-504.08414	992.46869	862.27972	-503.50354	985.87506	1119.10815	-712.58374	1041.6593	945.63483	-717.4126	1042.36792	1060.44482	-578.38885	680.12677	831.25177	-619.45551	480.3891	872.13458	-682.72693	294.94482	884.92969	-683.78137	73.31519	935.1106	-719.02356	46.89251	987.95404	-527.83728	36.92134	924.27576	-531.25488	692.26422	1216.38147	-481.00095	490.19727	1199.76465	-544.5498	314.28552	1198.32141	-575.8291	123.90547	1165.35034	-597.26007	68.68929	1101.51208	-442.46985	54.47202	1217.45044	-617.25311	1809.97656	1024.26367	-2845.81714	1034.33582	3357.31274	NaN	NaN	NaN	NaN	NaN	NaN
